<?xml version="1.0" encoding="UTF-8"?><svg id="_レイヤー_1" xmlns="http://www.w3.org/2000/svg" viewBox="0 0 841.89 841.89"><defs><style>.cls-1{fill:#fff;}.cls-2{fill:#d9a921;}</style></defs><circle class="cls-1" cx="420.94" cy="420.95" r="420.94"/><g><path class="cls-2" d="M648.85,535.58c0,34.7-8.94,65.87-26.8,93.51-17.87,27.65-44.02,49.29-78.44,64.95-34.43,15.66-75.25,23.47-122.47,23.47-56.6,0-103.29-10.69-140.08-32.08-26.08-15.38-47.28-35.93-63.57-61.62-16.3-25.68-24.46-50.67-24.46-74.92,0-14.09,4.88-26.15,14.67-36.2s22.23-15.06,37.36-15.06c12.26,0,22.63,3.92,31.11,11.73,8.47,7.83,15.71,19.44,21.71,34.82,7.31,18.26,15.19,33.53,23.68,45.77,8.47,12.26,20.4,22.37,35.8,30.32,15.38,7.97,35.6,11.93,60.64,11.93,34.43,0,62.4-8.02,83.92-24.06s32.27-36.06,32.27-60.06c0-19.04-5.81-34.49-17.42-46.36s-26.61-20.92-45-27.18c-18.39-6.26-42.98-12.9-73.75-19.96-41.22-9.64-75.71-20.92-103.48-33.84s-49.83-30.51-66.12-52.83c-16.3-22.3-24.46-50.01-24.46-83.14s8.61-59.6,25.82-84.13c17.21-24.52,42.12-43.36,74.73-56.54,32.6-13.17,70.95-19.76,115.02-19.76,35.22,0,65.66,4.37,91.36,13.11,25.68,8.74,47.01,20.35,63.97,34.82,16.95,14.47,29.34,29.67,37.17,45.58,7.83,15.92,11.73,31.44,11.73,46.55,0,13.83-4.88,26.28-14.68,37.36-9.78,11.09-21.97,16.63-36.58,16.63-13.3,0-23.41-3.33-30.32-9.97-6.92-6.64-14.42-17.54-22.49-32.67-10.44-21.65-22.96-38.53-37.56-50.67-14.61-12.13-38.08-18.2-70.42-18.2-30,0-54.19,6.59-72.58,19.76-18.39,13.18-27.58,29.01-27.58,47.53,0,11.49,3.14,21.39,9.4,29.73,6.26,8.35,14.87,15.52,25.82,21.52,10.95,6,22.04,10.7,33.25,14.09,11.21,3.4,29.73,8.35,55.55,14.87,32.34,7.57,61.62,15.92,87.84,25.04,26.22,9.13,48.52,20.21,66.9,33.25,18.39,13.04,32.73,29.54,43.03,49.5,10.3,19.96,15.45,44.41,15.45,73.37l.05,.05Z"/><path class="cls-1" d="M405.11,702.9c-62.29,0-129.13-30.57-161.08-99.16-9.26-19.89-.65-43.51,19.23-52.79,19.88-9.26,43.51-.66,52.77,19.23,21.53,46.2,73.46,60.33,113.66,50.38,43.87-10.84,79.82-49.54,87.43-94.07,4.83-28.28-2.83-56.07-19.54-70.79-16.83-14.83-44.37-19.69-73.52-24.82-12-2.12-24.39-4.29-36.8-7.28-31.37-7.54-56.96-19.04-78.22-35.19-27.51-20.9-46.36-49.31-53.06-79.98-8.25-37.76,2.19-79.37,27.93-111.3,21.87-27.13,54.34-47.02,91.4-56.02,32.77-7.95,67.84-7.77,98.76,.54,38.4,10.32,69.16,32.41,88.94,63.92,11.67,18.57,6.07,43.1-12.52,54.77-18.57,11.67-43.1,6.05-54.77-12.52-20.39-32.48-65.76-38.2-101.68-29.51-20.18,4.9-37.34,15.09-48.3,28.7-10.62,13.18-15.28,30.22-12.16,44.48,2.64,12.07,11.2,24.34,23.5,33.68,12.16,9.23,27.71,11.98,47.89,16.83,10.04,2.41,21.57,8.68,32.88,10.68,36.88,6.49,78.69,13.85,112.29,43.46,37.46,33.02,54.82,88.1,45.3,143.76-12.97,75.91-71.91,139.33-146.67,157.82-13.92,3.44-28.66,5.21-43.65,5.21h-.01Z"/></g><path class="cls-2" d="M420.95,841.88C188.83,841.88,0,653.04,0,420.95S188.83,0,420.95,0s420.94,188.83,420.94,420.94-188.83,420.94-420.94,420.94h0Zm0-805.23c-211.89,0-384.28,172.39-384.28,384.28s172.39,384.28,384.28,384.28,384.27-172.39,384.27-384.28S632.83,36.66,420.95,36.66h0Z"/></svg>