<?xml version="1.0" encoding="UTF-8"?><svg id="_レイヤー_1" xmlns="http://www.w3.org/2000/svg" viewBox="0 0 55.72 55.72"><defs><style>.cls-1{fill:none;stroke:#000;stroke-miterlimit:10;stroke-width:3px;}</style></defs><circle class="cls-1" cx="27.86" cy="27.86" r="26.36"/><path d="M17.59,17.99c-.2,.7-.4,1.5-.8,3-2.45,10.15-4.4,14.7-8.95,21.35-1.2-1.05-2.05-1.65-3.65-2.5,3.65-4.8,5.9-9.4,7.65-15.5,.85-3,1.3-5.4,1.45-7.45l4.3,1.1ZM30.04,5.89c-.2,1.35-.3,3-.3,5.4V45.29c0,3.55-1.3,4.55-5.8,4.55-2.05,0-4-.1-6.8-.35-.2-1.8-.45-2.7-1.1-4.3,3.1,.55,5.35,.8,7.3,.8,1.8,0,2.25-.25,2.25-1.25V11.24c0-2.3-.1-3.9-.3-5.35h4.75Zm11.2,10.75c.35,2.75,1.1,5.4,2.85,9.85,1.9,4.95,4.15,8.85,7.45,13.05-1.7,1.1-2.3,1.65-3.45,2.9-4.6-6.3-7.15-11.55-9.55-19.55l-.9-3.15c-.35-1.15-.55-1.8-.55-1.9l4.15-1.2Z"/></svg>