<?xml version="1.0" encoding="UTF-8"?><svg id="_レイヤー_1" xmlns="http://www.w3.org/2000/svg" viewBox="0 0 805.34 768.69"><path d="M421.34,768.69c-211.74,0-384-172.26-384-384S209.6,.69,421.34,.69s384,172.26,384,384-172.26,384-384,384Zm0-726.65c-188.94,0-342.65,153.71-342.65,342.66s153.71,342.65,342.65,342.65,342.66-153.71,342.66-342.65S610.28,42.04,421.34,42.04Z"/><path d="M387.84,121.62c0-15.5-1.24-27.29-3.72-40.32h63.88c-2.48,13.03-3.1,25.43-3.1,40.32v9.3h187.29c26.67,0,44.03-1.24,63.26-3.72v53.96c-20.46-2.48-35.97-3.1-63.26-3.1H208.62c-26.67,0-42.17,.62-62.64,3.1v-53.96c19.23,2.48,37.21,3.72,65.11,3.72h176.75v-9.3ZM164.58,426.12c0-20.46-.62-37.83-2.48-55.81,19.23,1.86,36.59,2.48,63.26,2.48h394.42c30.39,0,44.65-.62,60.77-2.48-1.86,19.85-2.48,33.49-2.48,55.2v160.63c0,26.66-3.72,39.06-14.89,47.75-12.4,8.68-27.29,11.78-63.88,11.78-7.44,0-24.19-.63-29.15-.63q-19.85-.62-29.77-1.24c-1.24-22.95-3.72-34.73-11.16-52.09,32.25,3.1,55.2,4.96,76.29,4.96,14.26,0,17.36-2.48,17.36-13.02v-165.59H219.77v170.54c0,31.01,.62,44.03,3.72,66.36h-62.63c2.48-14.27,3.71-39.69,3.71-66.36v-162.48Zm79.38-175.5c0-19.85-.62-32.25-1.86-45.89,16.74,1.86,31.01,2.48,59.54,2.48h246.82c24.8,0,36.59-.62,53.96-2.48-1.24,16.74-1.86,24.8-1.86,45.89v47.75c0,26.05,0,32.25,1.86,46.51-17.99-1.86-30.39-2.48-57.68-2.48h-245.59c-24.19,0-37.83,.62-57.05,2.48,1.24-13.02,1.86-24.8,1.86-46.51v-47.75Zm305.74,284.66c0,19.23,.63,29.76,1.86,42.17-13.02-1.24-34.73-1.86-53.96-1.86h-156.28v32.25h-54.58c2.48-12.4,3.1-27.91,3.1-50.85v-68.84c0-18.61-.62-29.77-1.86-42.17,14.26,1.24,27.28,1.86,50.23,1.86h161.24c22.95,0,35.97-.62,52.09-1.86-1.24,11.78-1.86,21.09-1.86,40.31v49Zm-252.4-235.67h249.93v-49.61h-249.93v49.61Zm44.03,234.42h158.14v-44.65h-158.14v44.65Z"/></svg>