<?xml version="1.0" encoding="UTF-8"?><svg id="_レイヤー_1" xmlns="http://www.w3.org/2000/svg" viewBox="0 0 768.69 768.69"><path d="M384.34,768.69C172.42,768.69,0,596.28,0,384.35S172.42,0,384.34,0s384.34,172.42,384.34,384.35-172.42,384.34-384.34,384.34Zm0-727.31C195.24,41.38,41.38,195.24,41.38,384.35s153.85,342.96,342.96,342.96,342.96-153.85,342.96-342.96S573.45,41.38,384.34,41.38Z"/><path d="M348.35,148.71c0-35.87-1.38-51.04-4.83-73.81h74.49c-3.45,20.69-4.14,39.32-4.14,71.73v51.04h193.13c26.9,0,41.39-.69,58.63-2.75-2.07,19.31-2.76,33.11-2.76,57.94v202.1c0,26.9,.69,44.83,3.45,65.53h-68.28v-43.46h-184.16v148.3c0,40.7,.69,60.01,4.82,82.77h-75.18c3.45-24.14,4.83-44.14,4.83-82.77v-148.3H173.16v43.46H104.18c2.76-23.45,4.14-38.63,4.14-65.53V252.86c0-24.14-.69-37.93-3.45-57.94,18.62,2.07,33.11,2.75,57.94,2.75h185.54v-48.97Zm-175.2,108.98v159.34h175.2v-159.34H173.16Zm424.89,159.34v-159.34h-184.16v159.34h184.16Z"/></svg>