<?xml version="1.0" encoding="UTF-8"?><svg id="_レイヤー_1" xmlns="http://www.w3.org/2000/svg" viewBox="0 0 832.63 841.89"><defs><style>.cls-1{fill:#040000;}</style></defs><path class="cls-1" d="M659.57,424.11c-15.38-15.38-33.31-27.51-53.26-35.94-20.65-8.79-42.62-13.18-65.21-13.18h-12.83c-1.67-3.6-3.6-7.12-5.71-10.63-.17-.35-1.76-2.81-2.9-3.34-1.14-.44-3.87-.18-5.01,1.23-.61,.79-.35,2.81-.09,4.04,.53,2.9,1.14,5.8,1.67,8.7,1.05,5.62,2.11,11.16,2.2,16.79,.09,2.2,0,4.39-.26,6.59-.09,.97-.26,2.02-.44,3.08-.7,3.69-1.93,7.38-3.95,11.25-.44,.79-.88,1.67-1.41,2.55-2.02,2.72-4.31,5.71-6.85,8.87-14.85,18.19-40.42,43.33-81.03,68.19-.88,.53-1.67,1.06-2.55,1.58s-1.85,1.14-2.81,1.76c-1.14,.7-2.29,1.49-3.34,2.28-.62,.44-1.23,.88-1.85,1.32-1.76,1.32-3.43,2.72-4.92,4.13-1.05,1.05-1.85,2.28-2.46,3.6-1.32,2.9-1.58,6.33-1.58,9.58v2.11c0,.97,.09,2.99,.09,5.8v6.94c.09,20.21,0,57.83,0,74.96v16.17c0,5.01,3.69,9.05,8.26,9.05h6.86c4.57,0,8.26-4.04,8.26-9.05v-96.49c0-4.39,1.93-7.64,4.75-10.28,2.99-2.81,6.85-5.01,10.37-6.94,6.94-3.87,14.76-8.52,22.94-13.62,13.01-8.17,26.98-17.75,39.81-28.21,1.85-1.49,4.31-2.55,6.94-3.08,.18-.09,.44-.09,.7-.09,.44-.09,.97-.09,1.41-.09,2.55,0,5.71,.7,8.7,1.49,1.85,.53,3.6,1.05,5.1,1.58l8.08,2.64c3.34,1.06,7.91,2.81,10.72,2.81,1.05,0,1.93-.26,2.37-.88h0c1.14-.7,1.76-2.02,1.23-3.78-5.27-15.55-7.73-31.99-10.81-48.25-.88-4.48-1.76-8.88-2.72-13.27-.35-1.49-.7-2.9-1.05-4.39h3.95c78.04,0,141.22,63.27,141.22,141.22v214.69c0,39.02-132.87,58.53-265.75,58.53-132.87,0-265.75-19.51-265.75-58.53v-215.04c0-78.04,63.27-141.22,141.22-141.22h5.1c-.44,1.85-.88,3.69-1.23,5.54-.88,4.13-1.76,8.35-2.46,12.57-2.64,14.24-4.92,28.56-9.14,42.36l-1.58,4.22c-1.49,3.69-.44,6.15,2.46,6.15,.62,0,1.41-.09,2.2-.35l21.62-7.03,3.16-1.06c1.14-.35,2.46-.53,3.87-.53,1.05,0,2.11,.09,3.16,.26,2.81,.53,5.54,1.67,7.47,3.25,12.74,10.46,26.63,19.95,39.55,28.12,9.58,6.06,18.72,11.34,26.45,15.64,.26-1.93,.61-3.95,1.23-5.98,.97-2.99,2.46-6.06,4.92-8.79,.44-.44,.79-.88,1.23-1.41,1.14-1.14,2.37-2.28,3.78-3.43-38.23-24.25-62.04-49.3-76.02-67.23-3.08-3.95-5.71-7.56-7.91-10.81-.17-.26-.26-.62-.44-.88-1.58-3.6-2.55-7.12-3.08-10.63-.17-.97-.26-1.93-.35-2.99-.18-2.2-.26-4.39-.18-6.59,.18-5.62,1.14-11.25,2.2-16.87,.62-3.25,1.23-6.42,1.85-9.58,.18-1.23-.17-2.28-.79-3.08-1.14-1.41-3.87-1.76-4.92-1.32-.62,.26-1.23,.7-1.67,1.41-.62,.97-1.23,1.93-1.76,2.9-1.85,3.16-3.43,6.33-4.92,9.58h-13.8c-22.59,0-44.56,4.39-65.21,13.18-19.95,8.44-37.88,20.56-53.26,35.94-15.38,15.38-27.51,33.31-35.94,53.26-8.79,20.65-13.18,42.62-13.18,65.21v214.69c0,7.91,2.2,19.86,12.83,31.46,6.06,6.68,14.06,12.39,24.52,17.66,16.17,8.17,38.76,15.11,66.96,20.56,49.83,9.75,116.53,15.11,187.71,15.11s137.97-5.36,187.71-15.11c28.3-5.54,50.8-12.48,66.96-20.56,10.46-5.27,18.45-10.98,24.52-17.66,10.63-11.69,12.83-23.55,12.83-31.46v-214.51c0-22.59-4.39-44.56-13.18-65.21-8.08-19.95-20.21-37.88-35.59-53.25Z"/><path class="cls-1" d="M416.34,25c12.88,.16,25.99,2.2,38.95,6.07,26.47,7.91,43.79,22.34,54.51,45.42,5.85,12.72,9.43,24.18,10.94,35.03v.03s0,.03,0,.03c2.23,15.79,1.75,32.84,1.24,50.9-.19,6.59-.38,13.4-.43,20.12l-.04,5.32,2.13,4.88c6.64,15.17,19.28,17.09,24.03,17.25,.34,.61,.61,1.58,.65,3.31,.11,3.9-1.13,9.29-3.46,15.14-2.51,6.28-5.14,12.47-7.93,19.03-1.49,3.52-3.04,7.15-4.55,10.78-.74,1.75-1.43,3.45-2.1,5.11-1.85,4.57-3.76,9.29-5.66,11.69-.14,.1-.38,.22-.53,.27l-11.41,1.65-6.14,9.83c-17.59,28.15-27.94,58.02-29.93,86.38v.15s-.02,.15-.02,.15c-.45,7.67-.37,15.04,.23,21.9v.12s.02,.12,.02,.12c.1,1.08,.21,2.15,.31,3.21-4.51,5.63-9.56,11.22-15.09,16.71l-.04,.04-.04,.04c-13.33,13.33-29.05,25.98-46.86,37.72-30.19-20.62-48.87-41.12-59.36-54.94,.09-.9,.18-1.81,.26-2.71v-.06s.02-.14,.02-.14v-.14c.67-7.7,.74-14.95,.22-22.19-1.98-28.34-12.33-58.2-29.93-86.35l-6.03-9.65-11.23-1.79c-.23-.04-.64-.21-.87-.36-1.88-2.31-3.81-7.1-5.67-11.74-.65-1.62-1.32-3.3-2.04-4.99-4.15-9.86-8.38-19.51-13.06-30.17-2.26-5.77-3.45-11.02-3.35-14.82,.05-1.73,.32-2.68,.66-3.28,4.72-.15,17.41-2.05,24.06-17.25l2.13-4.88-.04-5.32c-.05-6.72-.24-13.53-.43-20.11-.51-18.06-.99-35.11,1.24-50.91v-.04s.01-.04,.01-.04c1.53-11.08,5.09-22.5,10.89-34.93,10.81-23.15,28.15-37.61,54.55-45.51h0c13.07-3.87,26.17-5.91,38.95-6.07h.23m.15-25h-.53c-15.38,.18-30.85,2.64-45.96,7.12-32.34,9.67-55.72,28.21-70.04,58.88-6.24,13.36-10.99,27.42-13.01,42.09-3.43,24.25-1.23,50.09-1.05,74.7-.62,1.41-1.23,2.28-1.85,2.28h-.35c-5.18,0-10.37,1.67-14.32,5.01-14.5,12.3-11.25,32.08-5.01,47.72,4.48,10.19,8.88,20.21,13.09,30.23,3.34,7.91,6.15,16.61,11.69,23.2,3.87,4.66,9.93,7.91,15.99,8.88,14.06,22.5,24.34,48.42,26.19,74.87,.44,6.06,.35,12.13-.18,18.28-.26,2.72-.53,5.45-.79,8.08-.18,1.32-.26,2.64-.44,3.95,12.74,18.81,38.49,49.12,85.07,77.77,.09-.09,.18-.09,.18-.17,24.96-15.03,46.66-31.72,64.5-49.56,11.07-10.98,18.54-20.48,23.38-27.24-.18-1.58-.35-3.16-.53-4.75-.26-2.72-.53-5.36-.79-8.08-.53-6.06-.53-12.22-.18-18.28,1.85-26.36,12.13-52.38,26.19-74.87,6.06-.88,12.13-4.22,15.99-8.88,5.54-6.68,8.35-15.38,11.69-23.2,4.22-10.11,8.61-20.12,12.65-30.23,6.24-15.64,9.4-35.42-5.01-47.72-3.95-3.34-9.23-5.01-14.32-5.01h-.35c-.62,0-1.23-.88-1.85-2.28,.17-24.61,2.37-50.44-1.05-74.7-2.02-14.59-6.85-28.74-13.01-42.09-14.24-30.67-37.7-49.21-70.04-58.88-15.03-4.48-30.58-6.94-45.96-7.12h0Z"/></svg>