<?xml version="1.0" encoding="UTF-8"?><svg id="_レイヤー_1" xmlns="http://www.w3.org/2000/svg" viewBox="0 0 832.63 841.89"><defs><style>.cls-1{fill:#040000;}</style></defs><path class="cls-1" d="M831.68,374.66s0,0,0,0c0,0,0,0,0,0l-42.69-175.96c-.02-.07-.04-.13-.06-.2-.02-.06-.02-.13-.04-.19-16.78-63.48-68.12-107.63-140.85-121.15,0,0,0,0,0,0-40.54-7.57-75.98-32.17-97.24-67.51-5.37-8.92-16.62-12.11-25.8-7.62-34.47,12.09-63.78,18.61-92.1,20.49-37.77,2.5-80.27-4.67-126.32-21.33-.01,0-.03,0-.04-.01-.59-.21-1.18-.39-1.78-.54-.05-.01-.09-.03-.14-.04-.59-.15-1.19-.26-1.78-.35-.06,0-.12-.03-.18-.03-.44-.06-.88-.09-1.32-.13-2.13-.17-4.24,0-6.26,.5-.03,0-.05,0-.08,.02-.41,.1-.81,.24-1.22,.36-.21,.07-.43,.12-.64,.19-.23,.08-.45,.19-.68,.28-.37,.15-.75,.29-1.11,.46-.04,.02-.08,.04-.12,.06-1.86,.89-3.59,2.08-5.12,3.53-.32,.31-.65,.61-.95,.94-.04,.04-.07,.09-.11,.13-.41,.45-.8,.92-1.17,1.41-.03,.03-.05,.07-.07,.11-.37,.5-.72,1.02-1.05,1.56,0,.01-.02,.02-.02,.03-21.26,35.33-56.7,59.94-97.24,67.51-.01,0-.02,0-.03,0-33,3.37-63.79,16.44-89.15,37.89-25.52,21.58-43.58,50.01-52.31,82.24-.15,.46-.3,.93-.42,1.41L.9,374.65s0,0,0,0c0,0,0,0,0,0-2.1,8.67-.5,18.04,4.39,25.73,4.79,7.53,12.13,12.82,20.68,14.91,0,0,.01,0,.02,0h.02s0,0,0,0c0,0,0,0,0,0l126.6,30.82s0,0,.01,0c0,0,0,0,.01,0,.2,.05,.39,.08,.59,.12,.2,.04,.39,.09,.59,.12,2.12,.43,4.28,.65,6.44,.65,6.32,0,12.64-1.81,18.11-5.29,7.53-4.79,12.82-12.13,14.91-20.68,0,0,0,0,0-.01h0s0-.02,0-.03c0,0,0,0,0,0l9.36-38.44c.05,1.67,.08,3.35,.13,5.02,.21,7.58,.43,15.42,.55,23.14,2.3,123.63,1.06,249.34-3.79,384.31,0,.04,0,.08,0,.13-.81,21.26,15.47,39.76,36.45,41.32,.06,0,.12,0,.18,0,.04,0,.08,.01,.12,.01,60.04,3.58,120.33,5.37,180.47,5.37s119.63-1.78,178.78-5.32l.77-.05s.07,0,.1-.01c.05,0,.1,0,.15,0,21.24-1.58,37.73-20.08,36.93-41.32,0-.04,0-.09,0-.13-4.91-136.78-5.92-275.5-3.05-412.52l9.31,38.48s0,0,0,.01c2.07,8.57,7.37,15.93,14.92,20.73,5.47,3.48,11.8,5.29,18.11,5.29,2.16,0,4.31-.23,6.44-.65,.2-.04,.4-.08,.59-.12,.19-.04,.39-.08,.58-.12,0,0,0,0,.01,0,0,0,0,0,.01,0l126.6-30.82s0,0,0,0c0,0,0,0,0,0h.02s.01,0,.02,0c8.73-2.12,16.09-7.59,20.74-15.39,4.57-7.66,5.94-16.63,3.85-25.25Zm-790.58,3.31l5.38-22.16,114.94,27.76-5.45,22.37-114.86-27.96Zm95.12-155.29c7.33-27.6,31.3-47.89,59.67-50.5,.05,0,.09-.02,.14-.02,.04,0,.09,0,.13,0,47.67-5.2,93.29-28.15,130.4-65.23,24.79,22.9,56.6,36.79,89.89,36.79s65.75-13.63,90.41-36.47c36.73,36.28,83.11,59.68,130.04,65.11,.06,0,.11,0,.17,.01,.07,0,.14,.02,.21,.03,28.32,2.6,52.23,22.8,59.54,50.26l27.45,114.38-60.33,14.52-10.13-41.88c-.02-.07-.04-.14-.06-.21-.1-.4-.23-.8-.35-1.2-.07-.23-.14-.47-.22-.7-.14-.38-.3-.74-.46-1.11-.1-.24-.2-.48-.31-.71-.16-.33-.34-.64-.51-.96-.14-.26-.28-.52-.43-.77-.16-.27-.35-.53-.52-.79-.19-.28-.38-.57-.58-.85-.16-.22-.35-.43-.52-.64-.25-.3-.49-.6-.75-.88-.17-.19-.36-.36-.54-.54-.29-.29-.57-.57-.88-.84-.06-.05-.1-.11-.16-.15-.15-.13-.32-.24-.48-.37-.29-.24-.58-.47-.89-.69-.26-.19-.52-.36-.79-.54-.27-.18-.54-.35-.82-.52-.3-.18-.6-.34-.91-.5-.26-.14-.53-.27-.8-.4-.32-.15-.63-.28-.95-.41-.28-.11-.57-.23-.86-.33-.3-.11-.61-.2-.92-.29-.32-.1-.65-.19-.98-.27-.28-.07-.56-.12-.84-.18-.36-.07-.73-.14-1.1-.19-.25-.03-.51-.06-.76-.09-.39-.04-.78-.07-1.17-.09-.26-.01-.51-.01-.77-.01-.38,0-.76,0-1.14,.03-.29,.02-.59,.05-.88,.08-.34,.03-.67,.07-1.01,.12-.36,.05-.72,.13-1.09,.21-.2,.04-.4,.07-.6,.11-.07,.02-.14,.04-.21,.06-.4,.1-.79,.23-1.19,.35-.24,.08-.48,.14-.71,.23-.37,.13-.74,.29-1.1,.45-.24,.1-.49,.2-.72,.31-.32,.16-.64,.33-.95,.51-.26,.14-.53,.28-.78,.43-.27,.16-.52,.35-.78,.52-.29,.19-.58,.38-.85,.59-.22,.16-.42,.35-.64,.52-.3,.25-.6,.49-.88,.75-.19,.17-.36,.36-.54,.54-.29,.29-.58,.58-.85,.88-.05,.06-.11,.1-.15,.16-12.58,14.5-21.43,31.98-25.76,50.52H239.48c-4.27-19.03-13.04-36.73-25.52-51.1-.05-.05-.1-.1-.14-.15-.27-.31-.57-.6-.86-.89-.18-.18-.35-.36-.53-.53-.29-.26-.59-.51-.89-.76-.21-.17-.41-.35-.63-.51-.27-.2-.56-.39-.84-.58-.26-.18-.52-.37-.79-.53-.24-.15-.49-.27-.74-.41-.33-.18-.66-.37-1-.53-.21-.1-.44-.19-.66-.28-.39-.17-.78-.34-1.17-.48-.21-.08-.42-.13-.63-.2-.42-.14-.84-.27-1.26-.38-.06-.02-.12-.04-.18-.05-.19-.05-.38-.07-.56-.11-.38-.08-.77-.16-1.15-.22-.32-.05-.64-.08-.96-.11-.31-.03-.62-.06-.93-.08-.37-.02-.74-.02-1.1-.02-.27,0-.54,0-.81,0-.38,.02-.76,.05-1.14,.08-.27,.03-.53,.05-.8,.09-.36,.05-.72,.11-1.07,.18-.29,.06-.57,.11-.86,.18-.32,.08-.64,.17-.96,.26-.31,.09-.62,.19-.93,.3-.29,.1-.57,.21-.85,.33-.32,.13-.64,.26-.95,.41-.28,.13-.54,.27-.81,.41-.3,.16-.6,.31-.89,.48-.29,.17-.58,.36-.86,.54-.25,.16-.5,.33-.74,.5-.33,.24-.65,.5-.96,.75-.14,.12-.29,.22-.43,.34-.05,.04-.09,.09-.13,.13-.33,.29-.65,.61-.96,.93-.15,.15-.31,.3-.46,.46-.29,.31-.56,.64-.83,.97-.15,.18-.31,.36-.45,.55-.23,.3-.43,.61-.64,.93-.16,.24-.33,.47-.47,.71-.16,.27-.31,.55-.46,.83-.17,.3-.34,.6-.49,.91-.12,.24-.21,.49-.32,.74-.16,.36-.32,.72-.45,1.09-.08,.23-.15,.47-.22,.7-.13,.4-.25,.79-.36,1.2-.02,.07-.04,.13-.06,.19l-10.38,42.61-60.81-14.68,27.85-114.32Zm106.96,187.38c-.09-6.14-.25-12.32-.41-18.38h347.64c-.51,26.03-.88,52.13-1.11,78.25H244c-.19-20.03-.46-39.98-.82-59.87Zm433.92-4.13l-5.44-22.47,114.46-27.56,5.38,22.18-114.41,27.85Zm-36.38-289.62s0,0,0,0c0,0,0,0,0,0,57.78,10.73,96.7,43.42,109.6,92.06l28.05,115.64-22.21,5.35-27.51-114.63c-.01-.06-.04-.12-.05-.18-.02-.06-.02-.12-.04-.18-10.75-40.64-46.02-70.57-87.85-74.6-.02,0-.03,0-.05,0-40.37-4.67-80.51-25.35-112.3-57.42,4.5-6.55,8.53-13.51,12.04-20.83,26.56,28.18,61.61,47.58,100.31,54.8Zm-205.19-54.05c21.08-1.4,42.44-5.01,65.41-11.11-17.92,31.89-49.69,52.72-84.48,52.72s-66.16-21.21-84.23-52.89c29.91,7.94,58.11,11.88,85.17,11.88,6.1,0,12.14-.2,18.13-.6Zm-244.76,54.38c.99-.09,1.95-.28,2.89-.51,38.27-7.33,72.93-26.57,99.27-54.44,3.51,7.15,7.53,13.98,12.02,20.41-32.12,32.74-71.48,52.97-112.35,57.42-.02,0-.04,0-.06,.01-41.92,4-77.29,34.03-88.07,74.83-.01,.05-.02,.1-.03,.15-.01,.05-.03,.1-.05,.16l-27.93,114.62-22.26-5.38,27.92-115.09c.04-.13,.08-.25,.12-.37,13.26-50.16,56.87-87.05,108.53-91.81Zm48.6,680.14s0-.06,0-.1c0-.03,0-.07,0-.1,0-.04,0-.07,0-.11,3.57-99.63,5.19-194.25,4.88-286.7h344.8c-.32,95.69,1.22,191.66,4.63,286.7,0,.02,0,.03,0,.05,0,.01,0,.03,0,.04-.04,.07-.11,.15-.18,.2l-.28,.02c-116.79,7.01-235.84,7.01-353.86,0Z"/></svg>